<?xml version="1.0" standalone="no"?>
<!DOCTYPE svg PUBLIC "-//W3C//DTD SVG 1.1//EN" "http://www.w3.org/Graphics/SVG/1.1/DTD/svg11.dtd" >
<svg xmlns="http://www.w3.org/2000/svg">
<metadata>Generated by IcoMoon</metadata>
<defs>
<font id="icomoon" horiz-adv-x="1024">
<font-face units-per-em="1024" ascent="960" descent="-64" />
<missing-glyph horiz-adv-x="1024" />
<glyph unicode="&#x20;" horiz-adv-x="512" d="" />
<glyph unicode="&#xe900;" glyph-name="logo" horiz-adv-x="3983" d="M835.584 179.712c-79.872 0-346.112 0-434.176 0-88.064 7.168-90.112 45.056-92.16 82.944h-268.288c0-15.36 0-34.816 0-55.296 0-147.456 68.608-230.4 351.232-230.4 156.672 0 322.56 0 480.256 0 207.872 0 314.368 66.56 314.368 249.856 0 26.624 0 62.464 0 101.376 0 167.936-95.232 214.016-305.152 221.184-142.336 5.12-331.776 13.312-452.608 18.432-167.936 7.168-130.048 156.672 9.216 156.672h351.232c64.512 0 92.16-18.432 92.16-73.728h277.504c2.048 247.808-134.144 277.504-314.368 277.504h-498.688c-175.104-13.312-285.696-44.032-286.72-240.64 0-44.032 0-71.68 0-110.592 0-119.808 49.152-201.728 230.4-211.968 175.104-7.168 362.496-13.312 536.576-19.456 119.808-4.096 119.808-165.888 9.216-165.888v0zM2202.624 336.384c0-28.672 0-28.672 0-45.056 0-40.96-11.264-93.184-129.024-93.184h-351.232c-107.52 0-156.672 36.864-156.672 138.24v239.616c0 82.944 61.44 129.024 175.104 129.024h286.72c137.216 0 156.672-20.48 156.672-119.808h286.72c0 33.792 0 60.416 0 91.136 0 184.32-109.568 250.88-323.584 250.88-124.928 0-394.24 0-499.712 0-264.192 0-359.424-102.4-359.424-268.288 0-135.168 0-290.816 0-424.96-1.024-224.256 160.768-267.264 368.64-267.264 134.144 0 307.2 0 443.392 0 179.2 0 384 26.624 382.976 235.52v139.264l-280.576-5.12zM2631.68 216.576c135.168 119.808 289.792 216.064 457.728 282.624l101.376 206.848h73.728c23.552-43.008 41.984-86.016 64.512-129.024 95.232 16.384 190.464 27.648 287.744 31.744-25.6 48.128-131.072 248.832-166.912 319.488h-443.392l-374.784-711.68zM3144.704-23.040c65.536 287.744 257.024 477.184 701.44 563.2-562.176 16.384-1015.808-152.576-1339.392-563.2h267.264c87.040 153.6 248.832 327.68 480.256 397.312-120.832-78.848-293.888-229.376-351.232-397.312h241.664zM3628.032-28.16h317.44c-18.432 36.864-194.56 389.12-229.376 457.728-92.16-18.432-180.224-56.32-258.048-110.592l169.984-347.136z" />
<glyph unicode="&#xe901;" glyph-name="search" d="M983.040 60.928l-163.84 163.84c148.48 194.56 110.592 472.064-83.968 620.544s-473.088 110.592-621.568-83.968-109.568-472.064 84.992-620.544c158.72-120.832 377.856-120.832 536.576 0l163.84-163.84c23.552-23.552 61.44-23.552 83.968 0 23.552 23.552 23.552 61.44 0 83.968zM466.944 169.472c-178.176 0-322.56 144.384-322.56 322.56s144.384 322.56 322.56 322.56c178.176 0 322.56-144.384 322.56-322.56 0 0 0 0 0 0 0-177.152-144.384-321.536-322.56-322.56z" />
<glyph unicode="&#xe902;" glyph-name="arrow-down" d="M507.904 187.517c-13.312 1.024-25.6 6.144-34.816 14.336l-439.296 405.504c-22.528 21.504-24.576 57.344-3.072 79.872s57.344 24.576 79.872 3.072v0l401.408-369.664 401.408 369.664c22.528 21.504 58.368 19.456 79.872-3.072s19.456-58.368-3.072-79.872v0l-439.296-405.504c-13.312-10.24-28.672-15.36-43.008-14.336v0z" />
<glyph unicode="&#xe903;" glyph-name="arrow-left" d="M221.184 450.685c1.024 13.312 6.144 25.6 14.336 34.816l405.504 439.296c21.504 22.528 57.344 24.576 79.872 3.072s24.576-57.344 3.072-79.872v0l-369.664-401.408 369.664-401.408c21.504-22.528 19.456-58.368-3.072-79.872s-58.368-19.456-79.872 3.072v0l-405.504 439.296c-10.24 13.312-15.36 28.672-14.336 43.008v0z" />
<glyph unicode="&#xe904;" glyph-name="arrow-right" d="M739.328 450.685c-1.024 13.312-6.144 25.6-14.336 34.816l-405.504 439.296c-21.504 22.528-57.344 24.576-79.872 3.072s-24.576-57.344-3.072-79.872c0 0 0 0 0 0l369.664-401.408-369.664-401.408c-21.504-22.528-19.456-58.368 3.072-79.872s58.368-19.456 79.872 3.072c0 0 0 0 0 0l405.504 439.296c10.24 13.312 15.36 28.672 14.336 43.008v0z" />
<glyph unicode="&#xe905;" glyph-name="arrow-top" d="M507.904 705.661c-13.312-1.024-25.6-6.144-34.816-14.336l-439.296-405.504c-22.528-21.504-24.576-57.344-3.072-79.872s57.344-24.576 79.872-3.072v0l401.408 369.664 401.408-369.664c22.528-21.504 58.368-19.456 79.872 3.072s19.456 58.368-3.072 79.872v0l-439.296 405.504c-13.312 10.24-28.672 15.36-43.008 14.336v0z" />
<glyph unicode="&#xe906;" glyph-name="circle" d="M512 934.4c-268.288 0-486.4-218.112-486.4-486.4s218.112-486.4 486.4-486.4 486.4 218.112 486.4 486.4-218.112 486.4-486.4 486.4z" />
<glyph unicode="&#xe907;" glyph-name="user" d="M512 941.568c-154.624 0-280.576-124.928-280.576-280.576 0-107.52 61.44-204.8 156.672-251.904-192.512-55.296-325.632-231.424-326.656-432.128 0-12.288 10.24-22.528 22.528-22.528s22.528 10.24 22.528 22.528c0 217.088 171.008 396.288 388.096 404.48 6.144 0 11.264-1.024 17.408-1.024s11.264 0 17.408 1.024c217.088-9.216 388.096-187.392 388.096-404.48 0-12.288 10.24-22.528 22.528-22.528s22.528 10.24 22.528 22.528c0 200.704-133.12 377.856-326.656 433.152 139.264 68.608 196.608 236.544 128 374.784-47.104 96.256-144.384 156.672-251.904 156.672v0zM512 896.512c130.048 0 235.52-105.472 235.52-235.52 0-123.904-95.232-226.304-219.136-235.52h-33.792c-129.024 10.24-227.328 122.88-218.112 251.904 9.216 123.904 111.616 220.16 235.52 219.136z" />
<glyph unicode="&#xe908;" glyph-name="photo" d="M257.024 568.832c0-29.408-23.84-53.248-53.248-53.248s-53.248 23.84-53.248 53.248c0 29.408 23.84 53.248 53.248 53.248s53.248-23.84 53.248-53.248zM872.448 755.2h-104.448l-9.216 19.456c-18.432 37.888-56.32 61.44-98.304 61.44h-294.912c-41.984 0-79.872-23.552-98.304-61.44l-9.216-19.456h-105.472c-74.752 0-134.144-60.416-135.168-134.144v-427.008c0-73.728 60.416-134.144 134.144-134.144h719.872c73.728 0 134.144 60.416 134.144 134.144v427.008c1.024 73.728-58.368 134.144-132.096 134.144 0 0 0 0-1.024 0zM934.912 193.024c0-34.816-27.648-62.464-62.464-62.464h-719.872c-34.816 0-62.464 27.648-62.464 62.464v427.008c0 34.816 27.648 62.464 62.464 62.464h126.976c13.312 0 25.6 8.192 32.768 19.456l19.456 39.936c6.144 12.288 19.456 20.48 33.792 20.48h294.912c14.336 0 26.624-8.192 33.792-20.48l19.456-39.936c6.144-12.288 18.432-20.48 32.768-19.456h126.976c34.816 0 62.464-27.648 62.464-62.464l-1.024-427.008zM513.024 653.824c-123.904 0-223.232-99.328-224.256-223.232 0-123.904 99.328-223.232 223.232-224.256 123.904 0 223.232 99.328 224.256 223.232 0 123.904-100.352 224.256-223.232 224.256 0 0 0 0 0 0zM513.024 280.064c-82.944 0-149.504 68.608-149.504 150.528 0 82.944 68.608 149.504 150.528 149.504 82.944 0 149.504-67.584 149.504-150.528-1.024-81.92-67.584-149.504-150.528-149.504z" />
<glyph unicode="&#xe909;" glyph-name="list" d="M247.808 901.632c-6.144 6.144-16.384 7.168-23.552 1.024 0 0-1.024-1.024-1.024-1.024l-90.112-90.112c-3.072-3.072-8.192-3.072-11.264 0l-36.864 36.864c-6.144 6.144-16.384 7.168-23.552 1.024 0 0-1.024-1.024-1.024-1.024l-20.48-22.528c-6.144-6.144-7.168-16.384-1.024-23.552 0 0 1.024-1.024 1.024-1.024l74.752-74.752c6.144-6.144 16.384-7.168 23.552-1.024 0 0 1.024 1.024 1.024 1.024l129.024 129.024c6.144 6.144 7.168 16.384 1.024 23.552 0 0-1.024 1.024-1.024 1.024l-20.48 21.504zM396.288 860.672h560.128c17.408 0 31.744 14.336 31.744 31.744s-14.336 31.744-31.744 31.744h-560.128c-17.408 0-31.744-13.312-31.744-31.744 0 0 0-1.024 0-1.024 0-16.384 14.336-30.72 31.744-30.72zM396.288 705.024h366.592c17.408 0 31.744 14.336 31.744 31.744s-14.336 31.744-31.744 31.744h-366.592c-17.408 0-31.744-13.312-31.744-31.744 0 0 0-1.024 0-1.024 0-16.384 14.336-30.72 31.744-30.72zM247.808 535.040c-6.144 6.144-16.384 7.168-23.552 1.024 0 0-1.024-1.024-1.024-1.024l-90.112-90.112c-3.072-3.072-8.192-3.072-11.264 0l-36.864 36.864c-6.144 7.168-16.384 7.168-23.552 1.024 0 0-1.024-1.024-1.024-1.024l-20.48-22.528c-6.144-6.144-7.168-16.384-1.024-23.552 0 0 1.024-1.024 1.024-1.024l74.752-74.752c6.144-6.144 16.384-7.168 23.552-1.024 0 0 1.024 1.024 1.024 1.024l129.024 129.024c6.144 6.144 7.168 16.384 1.024 23.552 0 0-1.024 1.024-1.024 1.024l-20.48 21.504zM956.416 558.592h-560.128c-17.408 0-31.744-14.336-31.744-31.744s14.336-31.744 31.744-31.744h560.128c17.408 0 31.744 13.312 31.744 31.744 0 0 0 1.024 0 1.024 0 16.384-14.336 30.72-31.744 30.72zM396.288 337.408h366.592c17.408 0 31.744 14.336 31.744 31.744s-14.336 31.744-31.744 31.744c0 0 0 0 0 0h-366.592c-17.408 0-31.744-13.312-31.744-31.744 0 0 0-1.024 0-1.024 1.024-16.384 14.336-29.696 31.744-30.72zM247.808 169.472c-6.144 6.144-16.384 7.168-23.552 1.024 0 0-1.024-1.024-1.024-1.024l-90.112-91.136c-3.072-3.072-8.192-3.072-11.264 0l-36.864 36.864c-6.144 6.144-16.384 7.168-23.552 1.024 0 0-1.024-1.024-1.024-1.024l-20.48-22.528c-6.144-6.144-7.168-16.384-1.024-23.552 0 0 1.024-1.024 1.024-1.024l74.752-74.752c6.144-6.144 16.384-7.168 23.552-1.024 0 0 1.024 1.024 1.024 1.024l129.024 129.024c6.144 6.144 7.168 16.384 1.024 23.552 0 0-1.024 1.024-1.024 1.024l-20.48 22.528zM956.416 190.976h-560.128c-17.408 0-31.744-14.336-31.744-31.744s14.336-31.744 31.744-31.744h560.128c17.408 0 31.744 14.336 31.744 31.744s-14.336 31.744-31.744 31.744zM764.928 35.328h-368.64c-17.408 0-31.744-14.336-31.744-31.744s14.336-31.744 31.744-31.744h366.592c17.408 0 32.768 14.336 32.768 31.744 1.024 17.408-13.312 31.744-30.72 31.744v0 0z" />
<glyph unicode="&#xe90a;" glyph-name="info" d="M511.488-49.152c-274.432 0-496.64 222.208-496.64 497.664 0 274.432 222.208 496.64 496.64 496.64s497.664-222.208 497.664-497.664c0 0 0 0 0 0 0-274.432-222.208-496.64-497.664-496.64zM511.488 900.096c-249.856 0-452.608-202.752-452.608-452.608s202.752-452.608 452.608-452.608 452.608 202.752 452.608 453.632c0 248.832-202.752 451.584-452.608 451.584zM543.232 674.816v-180.224l-13.312-156.672c-1.024-9.216-9.216-17.408-18.432-17.408s-17.408 7.168-18.432 17.408l-13.312 155.648v181.248c0 17.408 14.336 31.744 31.744 31.744 18.432 0 31.744-14.336 31.744-31.744v0zM543.232 229.376v-8.192c0-17.408-14.336-31.744-31.744-31.744 0 0 0 0 0 0-17.408 0-31.744 14.336-31.744 31.744v0 8.192c0 17.408 14.336 31.744 31.744 31.744 0 0 0 0 0 0 18.432 0 31.744-14.336 31.744-31.744 0 0 0 0 0 0z" />
<glyph unicode="&#xe90b;" glyph-name="history" d="M546.816 908.8c-188.416 1.024-357.376-112.64-429.056-286.72l-27.648 48.128c-11.264 19.456-34.816 26.624-55.296 15.36-19.456-11.264-26.624-35.84-15.36-55.296v0l73.728-132.096c10.24-19.456 34.816-25.6 53.248-16.384l131.072 67.584c19.456 10.24 27.648 34.816 17.408 54.272s-34.816 27.648-54.272 17.408v0l-46.080-22.528c61.44 140.288 199.68 230.4 352.256 230.4 207.872-3.072 373.76-174.080 370.688-381.952s-174.080-373.76-381.952-370.688c-172.032 2.048-320.512 121.856-360.448 289.792-5.12 21.504-26.624 34.816-49.152 29.696-21.504-5.12-34.816-26.624-29.696-49.152 56.32-248.832 303.104-405.504 551.936-350.208s405.504 302.080 350.208 550.912c-47.104 211.968-235.52 362.496-451.584 361.472v0zM551.936 708.096c-22.528 0-39.936-18.432-39.936-40.96 0 0 0 0 0 0v-215.040c0-12.288 5.12-23.552 15.36-31.744l134.144-107.52c17.408-14.336 43.008-11.264 56.32 6.144 14.336 17.408 11.264 43.008-6.144 56.32v0l-118.784 95.232v196.608c0 22.528-17.408 40.96-39.936 40.96 0 0-1.024 0-1.024 0v0z" />
<glyph unicode="&#xe90c;" glyph-name="edit" d="M892.928 111.104c0-44.032-35.84-80.896-79.872-80.896h-638.976c-44.032 1.024-79.872 36.864-79.872 80.896v638.976c0 44.032 35.84 78.848 78.848 78.848 0 0 1.024 0 1.024 0h372.736v52.224h-372.736c-72.704 1.024-133.12-58.368-133.12-131.072 0 0 0 0 0-1.024v-638.976c0-73.728 59.392-134.144 133.12-134.144h638.976c73.728 1.024 133.12 60.416 133.12 134.144v371.712h-53.248c0 0 0-370.688 0-370.688zM952.32 889.344c0 0 0 0 0 0v0c-41.984 39.936-108.544 39.936-150.528 0l-357.376-357.376c-3.072-3.072-6.144-8.192-7.168-12.288l-37.888-150.528c-3.072-14.336 5.12-28.672 19.456-32.768 2.048-1.024 4.096-1.024 6.144-1.024s4.096 0 6.144 1.024l150.528 37.888c5.12 1.024 9.216 3.072 12.288 7.168l358.4 357.376c41.984 41.984 41.984 108.544 0 150.528zM563.2 424.448l-100.352-25.6 25.6 100.352 295.936 295.936 74.752-74.752-295.936-295.936zM915.456 776.704c0 0 0 0 0 0v0l-19.456-19.456-74.752 75.776 19.456 19.456c21.504 20.48 54.272 20.48 75.776 0 19.456-21.504 19.456-55.296-1.024-75.776z" />
<glyph unicode="&#xe90d;" glyph-name="delete" d="M817.152 696.832c-19.456 1.024-34.816-14.336-35.84-32.768l-25.6-608.256c-1.024-12.288-11.264-21.504-23.552-21.504h-441.344c-12.288 0-22.528 10.24-23.552 21.504l-25.6 608.256c-1.024 19.456-17.408 33.792-35.84 32.768-19.456-1.024-33.792-17.408-32.768-35.84l25.6-608.256c2.048-49.152 43.008-88.064 92.16-88.064h442.368c49.152 0 90.112 38.912 92.16 88.064l25.6 608.256c1.024 19.456-14.336 34.816-33.792 35.84zM539.648 136.704v470.016c0 15.36-12.288 27.648-27.648 27.648s-27.648-12.288-27.648-27.648v-470.016c0-15.36 12.288-27.648 27.648-27.648s27.648 12.288 27.648 27.648zM374.784 109.056c15.36 0 27.648 13.312 26.624 28.672l-13.312 470.016c0 15.36-13.312 27.648-28.672 26.624-15.36 0-27.648-13.312-26.624-28.672l13.312-470.016c0-15.36 13.312-26.624 28.672-26.624zM649.216 109.056c15.36 0 27.648 11.264 28.672 26.624l13.312 470.016c0 15.36-11.264 27.648-26.624 28.672s-27.648-11.264-28.672-26.624v0l-14.336-470.016c1.024-15.36 12.288-28.672 27.648-28.672zM858.112 814.592h-176.128l-13.312 46.080c-13.312 41.984-51.2 70.656-95.232 71.68h-123.904c-44.032-1.024-81.92-29.696-95.232-71.68l-13.312-46.080h-175.104c-19.456 0-34.816-15.36-34.816-34.816s15.36-34.816 34.816-34.816h691.2c19.456 0 34.816 15.36 34.816 34.816s-15.36 34.816-33.792 34.816zM420.864 841.216c4.096 12.288 15.36 20.48 28.672 21.504h124.928c12.288-1.024 23.552-9.216 28.672-21.504l8.192-26.624h-197.632l7.168 26.624z" />
<glyph unicode="&#xe90e;" glyph-name="contract" d="M399.36 608.768h240.64c11.264 0 20.48 9.216 20.48 20.48s-9.216 20.48-20.48 20.48h-240.64c-11.264 0-20.48-9.216-20.48-20.48s10.24-20.48 20.48-20.48zM641.024 166.4h-241.664c-11.264 0-20.48-9.216-20.48-20.48s9.216-20.48 20.48-20.48h241.664c11.264 0 20.48 9.216 20.48 20.48-1.024 11.264-9.216 20.48-20.48 20.48zM641.024 367.104c11.264 0 20.48 9.216 20.48 20.48s-9.216 20.48-20.48 20.48h-241.664c-11.264 0-20.48-9.216-20.48-20.48s9.216-20.48 20.48-20.48h241.664zM689.152 930.304h-468.992c-32.768 0-60.416-26.624-60.416-60.416v-843.776c0-33.792 26.624-60.416 60.416-60.416h582.656c33.792 0 60.416 26.624 60.416 60.416v732.16l-174.080 172.032zM794.624 769.536h-64.512c-14.336 3.072-25.6 13.312-28.672 27.648v65.536l93.184-93.184zM823.296 26.112c0-11.264-9.216-20.48-20.48-20.48h-582.656c-11.264 0-20.48 9.216-20.48 20.48v843.776c0 11.264 9.216 20.48 20.48 20.48v0h440.32v-94.208c4.096-35.84 32.768-64.512 68.608-67.584h93.184v-702.464zM741.376 287.232h-442.368c-11.264 0-20.48-9.216-20.48-20.48s9.216-20.48 20.48-20.48h442.368c11.264 0 20.48 9.216 20.48 20.48s-9.216 20.48-20.48 20.48zM279.552 508.416c0-11.264 9.216-20.48 20.48-20.48h442.368c11.264 0 20.48 9.216 20.48 20.48s-9.216 20.48-20.48 20.48h-443.392c-11.264 0-19.456-9.216-19.456-20.48z" />
<glyph unicode="&#xe90f;" glyph-name="close-circle" d="M512 934.4c-268.288 0-486.4-218.112-486.4-486.4s217.088-486.4 486.4-486.4c268.288 0 486.4 217.088 486.4 486.4 0 268.288-218.112 486.4-486.4 486.4zM664.576 324.096c8.192-8.192 8.192-22.528 0-30.72s-22.528-8.192-30.72 0l-121.856 121.856-121.856-121.856c-8.192-8.192-22.528-8.192-30.72 0s-8.192 22.528 0 30.72l121.856 121.856-121.856 120.832c-8.192 8.192-8.192 22.528 0 30.72s22.528 8.192 30.72 0l121.856-120.832 121.856 121.856c8.192 8.192 22.528 8.192 30.72 0s8.192-22.528 0-30.72l-121.856-121.856 121.856-121.856z" />
<glyph unicode="&#xe910;" glyph-name="add" d="M512 922.112c-52.224-1.024-94.208-44.032-93.184-96.256 0 0 0 0 0 0v-284.672h-292.864c-52.224-3.072-92.16-47.104-90.112-99.328s47.104-92.16 99.328-90.112v0h284.672v-282.624c0-52.224 41.984-94.208 94.208-94.208s94.208 41.984 94.208 94.208v0 283.648h284.672c52.224 0 94.208 41.984 94.208 94.208s-41.984 94.208-94.208 94.208h-284.672v285.696c1.024 52.224-40.96 95.232-93.184 96.256-1.024-1.024-2.048-1.024-3.072-1.024z" />
<glyph unicode="&#xe911;" glyph-name="show" d="M993.864 461.087c-55.296 158.72-262.144 278.528-482.304 278.528s-427.008-119.808-481.28-278.528l-4.096-13.312 4.096-13.312c55.296-158.72 262.144-278.528 481.28-278.528s427.008 119.808 481.28 278.528l4.096 13.312-3.072 13.312zM665.16 508.191c0-83.968-68.608-152.576-152.576-152.576s-152.576 68.608-152.576 152.576c0 83.968 68.608 152.576 152.576 152.576s151.552-67.584 152.576-152.576v0zM511.56 234.783c-181.248 0-351.232 91.136-402.432 212.992 41.984 82.944 114.688 145.408 201.728 175.104-63.488-110.592-25.6-251.904 84.992-315.392s251.904-25.6 315.392 84.992c40.96 71.68 40.96 158.72 0 230.4 88.064-29.696 159.744-93.184 201.728-175.104-50.176-121.856-219.136-212.992-401.408-212.992v0z" />
<glyph unicode="&#xe912;" glyph-name="nav" d="M900.096 6.287h-777.216c-28.672-1.024-52.224 22.528-53.248 51.2 0 1.024 0 2.048 0 2.048v70.656c-1.024 28.672 22.528 52.224 51.2 53.248 1.024 0 2.048 0 2.048 0h778.24c28.672 1.024 52.224-22.528 53.248-51.2 0-1.024 0-2.048 0-2.048v-70.656c-1.024-29.696-24.576-53.248-54.272-53.248zM900.096 359.24h-777.216c-28.672-1.024-52.224 22.528-53.248 51.2 0 1.024 0 2.048 0 2.048v70.656c-1.024 28.672 22.528 52.224 51.2 53.248 1.024 0 2.048 0 2.048 0h778.24c28.672 1.024 52.224-22.528 53.248-51.2 0-1.024 0-2.048 0-2.048v-70.656c0-28.672-22.528-52.224-51.2-53.248-1.024 0-2.048 0-3.072 0zM900.096 713.216h-777.216c-28.672-1.024-52.224 22.528-53.248 51.2 0 1.024 0 2.048 0 2.048v70.656c-1.024 28.672 22.528 52.224 51.2 53.248 1.024 0 2.048 0 2.048 0h778.24c28.672 1.024 52.224-22.528 53.248-51.2 0-1.024 0-2.048 0-2.048v-71.68c0-28.672-22.528-52.224-51.2-53.248-1.024 1.024-2.048 1.024-3.072 1.024z" />
<glyph unicode="&#xe913;" glyph-name="timeline" d="M1003.52 626.176c0-49.152-39.936-89.088-89.088-89.088-8.192 0-15.36 1.024-22.528 3.072l-159.744-158.72c2.048-7.168 3.072-15.36 3.072-23.552 0-49.152-39.936-89.088-89.088-89.088s-89.088 39.936-89.088 89.088c0 8.192 1.024 15.36 3.072 23.552l-114.688 114.688c-15.36-4.096-31.744-4.096-46.080 0l-202.752-203.776c2.048-7.168 3.072-15.36 3.072-22.528 0-49.152-39.936-89.088-89.088-89.088s-90.112 38.912-90.112 89.088c0 49.152 39.936 89.088 89.088 89.088 8.192 0 15.36-1.024 22.528-3.072l203.776 202.752c-2.048 7.168-3.072 15.36-3.072 23.552 0 49.152 39.936 89.088 89.088 89.088s89.088-39.936 89.088-89.088c0-8.192-1.024-15.36-3.072-23.552l113.664-113.664c15.36 4.096 31.744 4.096 46.080 0l158.72 158.72c-2.048 7.168-3.072 15.36-3.072 22.528 0 49.152 39.936 89.088 89.088 89.088 51.2 1.024 91.136-38.912 91.136-89.088z" />
<glyph unicode="&#xe914;" glyph-name="rectangle" d="M31.744 783.872h959.488v-671.744h-959.488v671.744z" />
<glyph unicode="&#xe915;" glyph-name="place" d="M512 924.16c-184.32 0-333.824-149.504-333.824-332.8 0-250.88 333.824-619.52 333.824-619.52s333.824 368.64 333.824 619.52c0 183.296-149.504 332.8-333.824 332.8zM512 471.552c-65.536 0-118.784 53.248-118.784 118.784s53.248 119.808 118.784 119.808 118.784-53.248 118.784-118.784-53.248-119.808-118.784-119.808z" />
<glyph unicode="&#xe916;" glyph-name="path" d="M258.048 911.872l-219.136-547.84 457.728-380.928 488.448 311.296-137.216 573.44-589.824 44.032z" />
<glyph unicode="&#xe917;" glyph-name="excel" d="M578.867 124.518v773.12h-62.464c-160.768-28.672-320.512-55.296-481.28-83.968v-731.136c158.72-27.648 318.464-56.32 478.208-84.992h65.536v126.976zM343.347 285.286c-19.456 43.008-36.864 87.040-52.224 131.072-14.336-41.984-34.816-82.944-51.2-123.904-22.528 0-46.080 1.024-68.608 2.048 26.624 52.224 53.248 105.472 80.896 157.696-23.552 53.248-49.152 106.496-73.728 159.744l69.632 4.096c15.36-40.96 32.768-80.896 45.056-122.88 14.336 44.032 33.792 87.040 52.224 129.024 23.552 2.048 47.104 3.072 70.656 4.096-27.648-57.344-56.32-114.688-83.968-172.032 28.672-58.368 58.368-116.736 87.040-175.104-25.6 2.048-50.176 4.096-75.776 6.144v0zM605.491 797.286v-55.296h110.592v-81.92h-110.592v-45.056h110.592v-81.92h-110.592v-45.056h110.592v-81.92h-110.592v-45.056h110.592v-80.896h-110.592v-47.104h110.592v-78.848h-110.592v-55.296h382.976v698.368h-382.976zM904.499 153.19h-161.792v78.848h160.768v-78.848zM904.499 280.166h-161.792v81.92h160.768v-81.92zM904.499 407.142h-161.792v80.896h160.768v-80.896zM904.499 534.118h-161.792v81.92h160.768v-81.92zM904.499 661.094h-161.792v81.92h160.768v-81.92z" />
<glyph unicode="&#xe918;" glyph-name="date" d="M855.040 869.888h-69.632v21.504c3.072 20.48-11.264 38.912-31.744 40.96-20.48 3.072-38.912-11.264-40.96-31.744 0-3.072 0-6.144 0-9.216v-23.552h-162.816v23.552c3.072 20.48-11.264 38.912-31.744 40.96-20.48 3.072-38.912-11.264-40.96-31.744 0-3.072 0-6.144 0-9.216v-23.552h-163.84v23.552c3.072 20.48-11.264 38.912-31.744 40.96s-38.912-11.264-40.96-31.744c0-3.072 0-6.144 0-9.216v-23.552h-69.632c-65.536 0-117.76-52.224-118.784-116.736v-671.744c0-64.512 52.224-116.736 116.736-116.736h685.056c64.512 0 116.736 52.224 116.736 116.736v673.792c1.024 63.488-50.176 115.712-113.664 116.736 0 0-1.024 0-2.048 0zM171.008 796.16h69.632v-23.552c3.072-20.48 21.504-34.816 40.96-31.744 16.384 2.048 29.696 15.36 31.744 31.744v23.552h163.84v-23.552c-3.072-20.48 11.264-38.912 31.744-40.96s38.912 11.264 40.96 31.744c0 3.072 0 6.144 0 9.216v23.552h163.84v-23.552c-3.072-20.48 11.264-38.912 31.744-40.96 20.48-3.072 38.912 11.264 40.96 31.744 0 3.072 0 6.144 0 9.216v23.552h69.632c24.576 0 44.032-20.48 45.056-45.056v-68.608h-775.168v68.608c0 24.576 19.456 45.056 44.032 45.056 0 0 0 0 1.024 0zM856.064 35.328h-685.056c-24.576 0-45.056 20.48-45.056 45.056v530.432h773.12v-530.432c1.024-24.576-18.432-44.032-41.984-45.056-1.024 0-1.024 0-1.024 0v0zM330.752 537.088h-88.064c-16.384 0-29.696-13.312-29.696-29.696v0-31.744c0-16.384 13.312-29.696 29.696-29.696v0h88.064c16.384 0 29.696 13.312 29.696 29.696v0 31.744c-1.024 16.384-14.336 29.696-29.696 29.696v0zM783.36 537.088h-87.040c-16.384 0-29.696-13.312-29.696-29.696v0-31.744c0-16.384 13.312-29.696 29.696-29.696v0h88.064c16.384 0 29.696 13.312 29.696 29.696v0 31.744c0 16.384-13.312 29.696-30.72 29.696v0zM557.056 537.088h-88.064c-16.384 0-29.696-13.312-29.696-29.696v0-31.744c0-16.384 13.312-29.696 29.696-29.696v0h88.064c16.384 0 29.696 13.312 29.696 29.696v0 31.744c0 16.384-13.312 29.696-29.696 29.696v0zM330.752 367.104h-88.064c-16.384 0-29.696-13.312-29.696-29.696v0-31.744c0-16.384 13.312-29.696 29.696-29.696v0h88.064c16.384 0 29.696 13.312 29.696 29.696v0 31.744c-1.024 16.384-14.336 29.696-29.696 29.696v0zM783.36 367.104h-87.040c-16.384 0-29.696-13.312-29.696-29.696v0-31.744c0-16.384 13.312-29.696 29.696-29.696v0h88.064c16.384 0 29.696 13.312 29.696 29.696v0 31.744c0 16.384-13.312 29.696-30.72 29.696v0zM557.056 367.104h-88.064c-16.384 0-29.696-13.312-29.696-29.696v0-31.744c0-16.384 13.312-29.696 29.696-29.696v0h88.064c16.384 0 29.696 13.312 29.696 29.696v0 31.744c0 16.384-13.312 29.696-29.696 29.696v0zM330.752 195.072h-88.064c-16.384 0-29.696-13.312-29.696-29.696v0-31.744c0-16.384 13.312-29.696 29.696-29.696v0h88.064c16.384 0 29.696 13.312 29.696 29.696v0 31.744c-1.024 16.384-14.336 29.696-29.696 29.696v0zM783.36 195.072h-87.040c-16.384 0-29.696-13.312-29.696-29.696v0-31.744c0-16.384 13.312-29.696 29.696-29.696v0h88.064c16.384 0 29.696 13.312 29.696 29.696v0 31.744c0 16.384-13.312 29.696-30.72 29.696v0zM557.056 195.072h-88.064c-16.384 0-29.696-13.312-29.696-29.696v0-31.744c0-16.384 13.312-29.696 29.696-29.696v0h88.064c16.384 0 29.696 13.312 29.696 29.696v0 31.744c0 16.384-13.312 29.696-29.696 29.696v0z" />
<glyph unicode="&#xe919;" glyph-name="checkbox3" d="M876.544-38.4h-729.088c-66.56 0-121.856 54.272-121.856 121.856v729.088c0 66.56 54.272 121.856 121.856 121.856h729.088c66.56 0 121.856-54.272 121.856-121.856v-729.088c0-66.56-55.296-121.856-121.856-121.856zM147.456 812.544v0-729.088h729.088v729.088h-729.088z" />
<glyph unicode="&#xe91a;" glyph-name="checkbox2" d="M878.592 936.448h-733.184c-67.584 0-121.856-54.272-121.856-121.856v-733.184c0-67.584 54.272-121.856 121.856-121.856h733.184c67.584 0 121.856 54.272 121.856 121.856v733.184c0 67.584-54.272 121.856-121.856 121.856zM817.152 386.56h-610.304v122.88h610.304v-122.88z" />
<glyph unicode="&#xe91b;" glyph-name="checkbox" d="M872.448 928.256h-720.896c-66.56 0-119.808-53.248-119.808-119.808v-720.896c0-66.56 54.272-119.808 119.808-119.808h720.896c66.56 0 119.808 54.272 119.808 119.808v720.896c0 66.56-53.248 119.808-119.808 119.808zM432.128 243.2l-160.768 161.792 39.936 39.936 120.832-120.832 304.128 304.128 39.936-39.936-344.064-345.088z" />
<glyph unicode="&#xe91c;" glyph-name="to-do" d="M788.48 862.72h-87.040l-14.336 46.080c-5.12 13.312-18.432 22.528-31.744 22.528h-289.792c-14.336 0-26.624-8.192-29.696-22.528l-14.336-46.080h-86.016c-43.008 0-78.848-34.816-78.848-78.848v-741.376c0-43.008 34.816-78.848 78.848-78.848h552.96c43.008 0 78.848 34.816 78.848 78.848v742.4c-1.024 43.008-34.816 77.824-78.848 77.824zM827.392 43.52c0-22.528-18.432-39.936-39.936-39.936h-553.984c-22.528 0-39.936 18.432-39.936 39.936v741.376c0 22.528 18.432 39.936 39.936 39.936h73.728l-4.096-14.336c-5.12-16.384 4.096-33.792 20.48-38.912 3.072-1.024 6.144-1.024 10.24-1.024h354.304c17.408 0 31.744 13.312 31.744 29.696 0 3.072 0 7.168-1.024 10.24l-4.096 14.336h73.728c22.528 0 39.936-18.432 39.936-39.936v-741.376h-1.024zM311.296 619.008h-31.744c-14.336 0-25.6-12.288-26.624-26.624v-31.744c0-14.336 12.288-25.6 26.624-26.624h31.744c14.336 0 25.6 12.288 26.624 26.624v31.744c0 15.36-12.288 26.624-26.624 26.624zM771.072 597.504h-345.088c-11.264 0-20.48-9.216-20.48-20.48s9.216-20.48 20.48-20.48h346.112c11.264 0 20.48 9.216 20.48 20.48-2.048 11.264-10.24 19.456-21.504 20.48zM311.296 470.528h-31.744c-14.336 0-25.6-12.288-26.624-26.624v-31.744c0-14.336 12.288-25.6 26.624-26.624h31.744c14.336 0 25.6 12.288 26.624 26.624v31.744c0 14.336-12.288 25.6-26.624 26.624zM771.072 448h-345.088c-11.264 0-20.48-9.216-20.48-20.48s9.216-20.48 20.48-20.48h346.112c11.264 0 20.48 9.216 20.48 20.48-2.048 11.264-10.24 19.456-21.504 20.48zM311.296 318.976h-31.744c-14.336 0-25.6-12.288-26.624-26.624v-31.744c0-14.336 12.288-25.6 26.624-26.624h31.744c14.336 0 25.6 12.288 26.624 26.624v31.744c0 14.336-10.24 25.6-24.576 26.624-1.024 0-1.024 0-2.048 0zM771.072 296.448h-345.088c-11.264 0-20.48-9.216-20.48-20.48s9.216-20.48 20.48-20.48h346.112c11.264 0 20.48 9.216 20.48 20.48-1.024 12.288-10.24 20.48-21.504 20.48zM311.296 170.496h-31.744c-14.336 0-25.6-12.288-26.624-26.624v-31.744c0-14.336 12.288-25.6 26.624-26.624h31.744c14.336 0 25.6 12.288 26.624 26.624v31.744c0 14.336-12.288 25.6-26.624 26.624zM771.072 147.968h-345.088c-11.264 0-20.48-9.216-20.48-20.48-1.024-10.24 7.168-19.456 17.408-20.48 1.024 0 2.048 0 2.048 0h346.112c11.264 0 20.48 9.216 20.48 20.48 1.024 11.264-8.192 20.48-20.48 20.48 0 0 0 0 0 0z" />
<glyph unicode="&#xe91d;" glyph-name="box" d="M280.771 668.16l414.72 178.176-172.032 70.656c-7.168 3.072-15.36 3.072-22.528 0l-412.672-169.984 192.512-78.848zM772.291 814.592l-414.72-178.176 154.624-63.488 423.936 174.080-163.84 67.584zM482.499 521.728l-167.936 68.608v-130.048c0-16.384-13.312-29.696-29.696-29.696s-29.696 13.312-29.696 29.696v0 154.624l-193.536 78.848v-524.288c0-12.288 7.168-22.528 18.432-27.648l402.432-164.864v544.768zM541.891 521.728v-544.768l402.432 164.864c11.264 4.096 18.432 15.36 18.432 27.648v524.288l-420.864-172.032z" />
<glyph unicode="&#xe91e;" glyph-name="bar-chart" d="M954.368-1.157h-41.984v606.208c0 28.672-22.528 51.2-51.2 51.2h-93.184c-28.672 0-51.2-22.528-51.2-51.2v-605.184h-105.472v330.752c0 28.672-22.528 51.2-51.2 51.2h-93.184c-28.672 0-51.2-22.528-51.2-51.2v-330.752h-106.496v171.008c0 28.672-22.528 51.2-51.2 51.2h-93.184c-28.672 0-51.2-22.528-51.2-51.2v-172.032h-43.008c-11.264 0-19.456-8.192-19.456-18.432s8.192-19.456 19.456-19.456v0h883.712c10.24 0 19.456 8.192 19.456 19.456s-9.216 18.432-19.456 18.432zM912.343 914.944c1.024 10.24-7.168 19.456-17.408 20.48-1.024 0-1.024 0-2.048 0h-116.736c-10.24 0-19.456-8.192-19.456-19.456s8.192-19.456 19.456-19.456h70.656l-187.392-187.392-70.656 70.656c-7.168 7.168-19.456 7.168-26.624 0 0 0 0 0 0 0l-342.016-342.016c-7.168-7.168-7.168-19.456 0-26.624s19.456-7.168 26.624 0v0l328.704 328.704 70.656-70.656c7.168-7.168 19.456-7.168 26.624 0 0 0 0 0 0 0l201.728 200.704v-64.512c0-10.24 8.192-19.456 19.456-19.456s19.456 8.192 19.456 19.456v0l-1.024 109.568c0-1.024 0 0 0 0z" />
<glyph unicode="&#xe91f;" glyph-name="contract2" d="M858.112 716.288l-195.584 194.56c-4.096 4.096-8.192 6.144-14.336 6.144h-409.6c-43.008 0-77.824-34.816-77.824-77.824v-781.312c0-43.008 34.816-77.824 77.824-77.824v0h546.816c43.008 0 77.824 34.816 77.824 77.824v645.12c0 4.096-2.048 9.216-5.12 13.312zM296.96 721.408h234.496c10.24-1.024 18.432-10.24 17.408-21.504-1.024-9.216-8.192-16.384-17.408-17.408h-234.496c-10.24 1.024-18.432 10.24-17.408 21.504 1.024 9.216 8.192 16.384 17.408 17.408zM727.040 331.264h-429.056c-10.24-1.024-20.48 7.168-21.504 17.408s7.168 20.48 17.408 21.504c1.024 0 2.048 0 4.096 0h429.056c10.24-1.024 18.432-10.24 17.408-21.504-1.024-9.216-8.192-17.408-17.408-17.408zM727.040 448h-430.080c-10.24 1.024-18.432 10.24-17.408 21.504 1.024 9.216 8.192 16.384 17.408 17.408h430.080c10.24 1.024 20.48-7.168 21.504-17.408s-7.168-20.48-17.408-21.504c-2.048 0-3.072 0-4.096 0zM727.040 565.76h-430.080c-10.24 1.024-18.432 10.24-17.408 21.504 1.024 9.216 8.192 16.384 17.408 17.408h430.080c10.24 1.024 20.48-7.168 21.504-17.408s-7.168-20.48-17.408-21.504c-2.048-1.024-3.072-1.024-4.096 0zM707.584 721.408c-21.504 0-38.912 17.408-38.912 38.912 0 0 0 0 0 0v90.112l129.024-129.024h-90.112z" />
<glyph unicode="&#xe920;" glyph-name="add-box" d="M555.008 797.184l-146.432 60.416c-6.144 2.048-13.312 2.048-19.456 0l-351.232-144.384 163.84-67.584 353.28 151.552zM230.4 467.456c0-14.336-11.264-25.6-25.6-25.6s-25.6 11.264-25.6 25.6v132.096l-163.84 67.584v-446.464c0-10.24 6.144-19.456 15.36-23.552l343.040-140.288v463.872l-143.36 58.368v-111.616zM620.544 770.56l-353.28-151.552 132.096-54.272 360.448 148.48zM783.36 456.192v210.944l-358.4-147.456v-463.872l185.344 75.776c-14.336 30.72-22.528 64.512-22.528 98.304 0 113.664 82.944 209.92 195.584 226.304zM815.104 424.448c-107.52 0-193.536-87.040-193.536-193.536s87.040-193.536 193.536-193.536c107.52 0 193.536 87.040 193.536 193.536s-87.040 193.536-193.536 193.536zM892.928 211.456h-58.368v-58.368c-1.024-10.24-8.192-17.408-18.432-18.432s-19.456 7.168-20.48 18.432v58.368h-58.368c-10.24 1.024-17.408 8.192-18.432 18.432s7.168 19.456 18.432 20.48h58.368v58.368c1.024 10.24 8.192 17.408 18.432 18.432s19.456-7.168 20.48-18.432v-58.368h58.368c10.24-1.024 17.408-8.192 18.432-18.432 0-11.264-8.192-19.456-18.432-20.48z" />
<glyph unicode="&#xe921;" glyph-name="edit2" d="M88.064 120.32c0-9.216 7.168-16.384 17.408-17.408h163.84c2.048 0 3.072 0 5.12 1.024v0c2.048 1.024 5.12 2.048 6.144 4.096l187.392 187.392 110.592 111.616 113.664 113.664c28.672 28.672 57.344 57.344 86.016 86.016l-123.904 123.904-50.176 52.224-12.288 12.288c-30.72-30.72-61.44-61.44-92.16-92.16-37.888-37.888-75.776-75.776-114.688-113.664l-109.568-111.616c-31.744-31.744-62.464-62.464-94.208-94.208l-82.944-82.944c-6.144-4.096-9.216-10.24-10.24-17.408-1.024-15.36 0-30.72 0-45.056v-117.76zM635.904 813.568l176.128-176.128 109.568 109.568c8.192 7.168 14.336 17.408 15.36 29.696 2.048 20.48-15.36 34.816-28.672 47.104l-102.4 102.4-12.288 13.312c-12.288 12.288-30.72 15.36-46.080 7.168-5.12-3.072-10.24-7.168-14.336-12.288l-47.104-46.080-62.464-62.464 6.144-6.144c2.048-2.048 4.096-4.096 6.144-6.144zM913.408 11.776h-770.048c-10.24 0-20.48 0-31.744 0h-1.024c-18.432 0-33.792-15.36-33.792-33.792s15.36-33.792 33.792-33.792h770.048c10.24 0 20.48 0 31.744 0h1.024c18.432 0 33.792 15.36 33.792 33.792s-15.36 33.792-33.792 33.792z" />
<glyph unicode="&#xe922;" glyph-name="map2" d="M957.44 457.216c-3.072 17.408-18.432 28.672-35.84 28.672h-109.568c19.456 47.104 31.744 97.28 35.84 149.504-1.024 161.792-120.832 296.96-270.336 296.96s-266.24-135.168-266.24-297.984c2.048-51.2 14.336-102.4 35.84-149.504h-244.736c-16.384 0-30.72-12.288-31.744-28.672l-39.936-460.8c0-17.408 14.336-31.744 31.744-31.744 0 0 0 0 0 0h898.048c17.408 0 31.744 14.336 31.744 31.744 0 0 0 0 0 0-10.24 152.576-24.576 309.248-34.816 461.824zM783.36 421.376h109.568l7.168-92.16h-162.816c17.408 31.744 31.744 63.488 46.080 92.16zM907.264 264.704l7.168-81.92h-162.816l-50.176 81.92h205.824zM577.536 762.368c55.296-2.048 99.328-47.104 99.328-103.424-2.048-55.296-48.128-97.28-103.424-95.232s-97.28 48.128-95.232 103.424c2.048 53.248 46.080 95.232 99.328 95.232zM371.712 424.448c0 0 0 0 0 0v0c0 0 0 0 0 0 11.264-26.624 24.576-53.248 38.912-77.824-3.072-3.072-7.168-3.072-7.168-7.168l-131.072-138.24-116.736 220.16c71.68-2.048 144.384-1.024 216.064 3.072zM98.304 27.136l24.576 315.392c56.32-106.496 113.664-208.896 169.984-315.392h-194.56zM368.64 27.136l-64.512 113.664 138.24 145.408c39.936-74.752 84.992-147.456 135.168-216.064 21.504 31.744 53.248 77.824 84.992 131.072 35.84-56.32 70.656-116.736 106.496-174.080h-400.384zM843.776 27.136l-56.32 92.16h131.072l7.168-92.16h-81.92z" />
<glyph unicode="&#xe923;" glyph-name="map" d="M755.712 944.64c-108.544 8.192-202.752-73.728-209.92-182.272 0-6.144-1.024-13.312 0-19.456l-195.584-66.56-218.112 93.184c-16.384 7.168-35.84-1.024-43.008-17.408-2.048-4.096-3.072-8.192-3.072-13.312v-656.384c0-13.312 8.192-24.576 19.456-29.696l229.376-99.328c0 0 1.024 0 1.024 0 7.168-3.072 15.36-3.072 22.528-1.024 0 0 1.024 0 1.024 0l249.856 94.208 217.088-93.184c16.384-7.168 35.84 1.024 43.008 17.408 2.048 4.096 3.072 8.192 3.072 13.312v558.080c0 1.024 0 2.048-1.024 3.072 33.792 58.368 56.32 122.88 66.56 190.464 8.192 107.52-73.728 201.728-182.272 208.896zM315.392 34.304l-163.84 70.656v584.704l163.84-70.656v-584.704zM577.536 608.768v-502.784l-196.608-73.728v585.728l175.104 59.392c6.144-21.504 14.336-43.008 23.552-63.488-1.024-2.048-2.048-3.072-2.048-5.12zM643.072 104.96v377.856c32.768-60.416 63.488-109.568 70.656-120.832 9.216-15.36 29.696-19.456 45.056-10.24 4.096 3.072 7.168 6.144 10.24 10.24 5.12 7.168 19.456 30.72 37.888 63.488v-389.12l-163.84 68.608zM741.376 441.856c-59.392 101.376-131.072 240.64-131.072 292.864-1.024 73.728 57.344 134.144 131.072 136.192 0 0 0 0 0 0v0c0 0 0 0 0 0 73.728-1.024 132.096-62.464 131.072-136.192 0-52.224-71.68-191.488-131.072-292.864zM741.376 836.096c-54.272 0-98.304-44.032-98.304-98.304s44.032-98.304 98.304-98.304c54.272 0 98.304 44.032 98.304 98.304s-44.032 98.304-98.304 98.304zM741.376 705.024c-18.432 0-32.768 14.336-32.768 32.768s14.336 32.768 32.768 32.768 32.768-14.336 32.768-32.768c0-18.432-14.336-32.768-32.768-32.768z" />
<glyph unicode="&#xe924;" glyph-name="settings" d="M988.16 509.44c-8.192 5.12-69.632 41.984-94.208 53.248l-30.72 73.728c9.216 24.576 26.624 92.16 28.672 104.448 2.048 11.264-1.024 22.528-9.216 30.72l-48.128 48.128c-8.192 8.192-19.456 11.264-30.72 9.216-9.216-2.048-78.848-19.456-104.448-28.672l-73.728 30.72c-11.264 23.552-47.104 83.968-53.248 94.208-6.144 9.216-16.384 15.36-27.648 15.36h-67.584c-11.264 0-21.504-6.144-27.648-15.36-5.12-8.192-41.984-69.632-53.248-94.208l-73.728-30.72c-24.576 9.216-92.16 26.624-104.448 28.672-11.264 2.048-22.528-1.024-30.72-9.216l-48.128-48.128c-8.192-8.192-11.264-19.456-9.216-30.72 2.048-9.216 19.456-78.848 28.672-104.448l-30.72-73.728c-23.552-10.24-83.968-47.104-94.208-53.248-9.216-6.144-15.36-16.384-15.36-27.648v-67.584c0-11.264 6.144-21.504 15.36-27.648 8.192-5.12 69.632-41.984 94.208-53.248l30.72-73.728c-9.216-24.576-26.624-92.16-28.672-104.448-2.048-11.264 1.024-22.528 9.216-30.72l48.128-48.128c8.192-8.192 19.456-11.264 30.72-9.216 9.216 2.048 79.872 19.456 104.448 28.672l73.728-30.72c11.264-23.552 47.104-83.968 53.248-94.208 6.144-9.216 16.384-15.36 27.648-15.36h67.584c11.264 0 21.504 6.144 27.648 15.36 5.12 8.192 41.984 69.632 53.248 94.208l73.728 30.72c24.576-9.216 92.16-26.624 104.448-28.672 11.264-2.048 22.528 1.024 30.72 9.216l48.128 48.128c8.192 8.192 11.264 19.456 9.216 30.72-2.048 9.216-19.456 78.848-28.672 104.448l30.72 73.728c23.552 11.264 83.968 47.104 94.208 53.248 9.216 6.144 15.36 16.384 15.36 27.648v67.584c-1.024 11.264-6.144 21.504-15.36 27.648zM512 233.984c-117.76 0-214.016 96.256-214.016 214.016s96.256 214.016 214.016 214.016 214.016-96.256 214.016-214.016c0-117.76-95.232-214.016-214.016-214.016z" />
<glyph unicode="&#xe925;" glyph-name="email" d="M1014.784 730.624c0 51.2-40.96 92.16-92.16 92.16h-821.248c-51.2 0-92.16-40.96-92.16-92.16v-565.248c0-51.2 40.96-92.16 92.16-92.16h820.224c51.2 0 92.16 40.96 92.16 92.16l1.024 565.248zM101.376 776.704h820.224c2.048 0 5.12 0 7.168-1.024l-382.976-401.408c-17.408-18.432-47.104-19.456-65.536-1.024 0 0-1.024 1.024-1.024 1.024l-385.024 401.408c3.072 1.024 5.12 1.024 7.168 1.024zM55.296 730.624c0 5.12 1.024 11.264 3.072 16.384l242.688-252.928-245.76-302.080v538.624zM922.624 119.296h-821.248c-12.288 0-24.576 5.12-33.792 14.336l265.216 325.632 112.64-116.736c34.816-36.864 94.208-37.888 130.048-3.072 1.024 1.024 2.048 2.048 3.072 3.072l104.448 109.568 272.384-318.464c-8.192-9.216-20.48-14.336-32.768-14.336v0zM968.704 189.952l-252.928 295.936 249.856 261.12c2.048-5.12 3.072-10.24 3.072-16.384v-540.672z" />
<glyph unicode="&#xe926;" glyph-name="notification" d="M684.032 121.344c-5.12-95.232-86.016-168.96-181.248-163.84-88.064 4.096-158.72 74.752-163.84 163.84h-190.464c-65.536 0-117.76 53.248-117.76 117.76 0 61.44 47.104 112.64 108.544 117.76v208.896c0 205.824 166.912 372.736 372.736 372.736s372.736-166.912 372.736-372.736v-208.896c64.512-5.12 113.664-62.464 108.544-126.976-5.12-61.44-56.32-108.544-117.76-108.544h-191.488zM592.896 121.344h-161.792c5.12-45.056 45.056-76.8 90.112-72.704 37.888 4.096 67.584 33.792 71.68 72.704v0zM875.52 266.752c-45.056 0-81.92 36.864-81.92 81.92 0 0 0 0 0 0v217.088c-3.072 155.648-132.096 278.528-287.744 275.456-150.528-3.072-272.384-124.928-275.456-275.456v-218.112c0-45.056-36.864-81.92-81.92-81.92-15.36 0-27.648-12.288-27.648-27.648s12.288-27.648 27.648-27.648c0 0 0 0 0 0h727.040c15.36 0 27.648 12.288 27.648 27.648-1.024 16.384-12.288 28.672-27.648 28.672 0 0 0 0 0 0v0z" />
<glyph unicode="&#xe927;" glyph-name="cheveron-right" d="M663.040 424.602l36.198 36.198-289.638 289.638-72.397-72.397 217.19-217.242-217.19-217.242 72.397-72.397 253.44 253.44z" />
<glyph unicode="&#xe928;" glyph-name="cheveron-up" d="M548.198 611.84l-36.198 36.198-289.638-289.638 72.397-72.397 217.242 217.19 217.242-217.19 72.397 72.397z" />
<glyph unicode="&#xe929;" glyph-name="target" d="M918.528 409.6h-252.928v102.4h252.928c-24.013 185.779-169.548 331.315-353.274 355.111l-2.054 0.217v-252.928h-102.4v252.928c-185.779-24.013-331.315-169.548-355.111-353.274l-0.217-2.054h252.928v-102.4h-252.928c24.013-185.779 169.548-331.315 353.274-355.111l2.054-0.217v252.928h102.4v-252.928c185.779 24.013 331.315 169.548 355.111 353.274l0.217 2.054zM512-51.2c-282.77 0-512 229.23-512 512s229.23 512 512 512v0c282.77 0 512-229.23 512-512s-229.23-512-512-512v0z" />
<glyph unicode="&#xe989;" glyph-name="enlarge" d="M1024 960h-416l160-160-192-192 96-96 192 192 160-160zM1024-64v416l-160-160-192 192-96-96 192-192-160-160zM0-64h416l-160 160 192 192-96 96-192-192-160 160zM0 960v-416l160 160 192-192 96 96-192 192 160 160z" />
</font>
</defs>
</svg>
